<?xml version="1.0" encoding="utf-8"?>
<!-- Generator: Adobe Illustrator 19.1.0, SVG Export Plug-In . SVG Version: 6.00 Build 0)  -->
<svg version="1.1" id="Layer_1" xmlns="http://www.w3.org/2000/svg" xmlns:xlink="http://www.w3.org/1999/xlink" x="0px" y="0px"
	 viewBox="0 0 214.2 36.1" style="enable-background:new 0 0 214.2 36.1;" xml:space="preserve">
<style type="text/css">
	.st0{fill:#666666;}
	.st1{fill-rule:evenodd;clip-rule:evenodd;fill:#78AA43;}
	.st2{fill:#78AA43;}
	.st3{fill:#4C4C4C;}
</style>
<g>
	<path class="st0" d="M0,7.2h5.3v12.1h12.8V7.2h5.3v28.5h-5.3V23.5H5.3v12.1H0V7.2z"/>
	<path class="st0" d="M62.7,7.2H68v24.3h12.2v4.2H62.7V7.2z"/>
	<path class="st0" d="M88.3,23.3L78.9,7.2h5.9L91.2,19l6.3-11.8h5.2l-8.9,16.2v12.3h-5.3V23.3z"/>
	<path class="st0" d="M117.2,36.1c-2.2,0-4.2-0.3-5.9-1c-1.7-0.7-3.2-1.7-4.4-2.9c-1.2-1.2-2.1-2.8-2.7-4.5c-0.6-1.8-0.9-3.8-0.9-6
		v-0.3c0-2.2,0.3-4.1,1-5.9c0.7-1.8,1.7-3.3,2.9-4.6c1.2-1.3,2.7-2.3,4.4-3c1.7-0.7,3.5-1.1,5.5-1.1c1.6,0,3.1,0.2,4.6,0.6
		c1.4,0.4,2.7,1,3.8,1.9c1.1,0.8,2,1.9,2.7,3.1c0.7,1.3,1.1,2.7,1.3,4.4H124c-0.3-1.9-1-3.4-2.1-4.3c-1.1-1-2.7-1.4-4.7-1.4
		c-1.3,0-2.4,0.2-3.4,0.7c-1,0.5-1.9,1.2-2.6,2c-0.7,0.9-1.3,2-1.7,3.2c-0.4,1.3-0.6,2.7-0.6,4.3v0.3c0,3.2,0.7,5.7,2.2,7.5
		c1.5,1.8,3.5,2.7,6.2,2.7c2,0,3.6-0.5,4.9-1.5c1.3-1,2.1-2.5,2.4-4.5h5.2c-0.2,1.7-0.7,3.2-1.4,4.5c-0.7,1.3-1.6,2.4-2.7,3.2
		c-1.1,0.9-2.3,1.5-3.8,1.9C120.5,35.8,118.9,36.1,117.2,36.1z"/>
	<path class="st0" d="M167.1,7.2h8.7c2.5,0,4.6,0.3,6.5,1c1.8,0.7,3.4,1.6,4.6,2.9c1.2,1.2,2.1,2.7,2.8,4.4c0.6,1.7,0.9,3.6,0.9,5.7
		v0.4c0,2.1-0.3,4-0.9,5.7c-0.6,1.7-1.5,3.2-2.8,4.5c-1.2,1.3-2.8,2.2-4.6,2.9c-1.9,0.7-4,1.1-6.5,1.1h-8.6V7.2z M175.5,31.5
		c3.2,0,5.6-0.9,7.1-2.6c1.5-1.7,2.3-4.2,2.3-7.4v-0.3c0-1.5-0.2-2.9-0.5-4.1c-0.4-1.2-0.9-2.2-1.7-3.1c-0.8-0.9-1.8-1.5-3-2
		c-1.2-0.5-2.6-0.7-4.3-0.7h-3.1v20.1H175.5z"/>
	<path class="st0" d="M195.7,7.2h17.8v4.2H201v7.8h10.1v4H201v8.3h13.2v4.2h-18.5V7.2z"/>
	<g>
		<path class="st0" d="M133.7,19.8v3.6c1.9,0.1,2.8,0.9,3.1,2.8c0.4,2.1-0.1,4.3,0.4,6.5c0.4,1.6,1.4,2.5,3,2.9
			c1.2,0.4,2.4,0.3,3.6,0.3v-3.5c-1.1,0-1.8-0.1-2.1-0.2c-0.8-0.3-0.9-1.1-0.9-1.8c0-0.6-0.1-1.8-0.1-3.5c-0.1-2.3-0.7-3.8-2.6-5.1
			c2.1-1.2,2.5-3.1,2.7-5.4c0.1-1.6,0.1-2.7,0.1-3.1c0-0.8,0.1-1.6,1-1.9c0.3-0.1,1-0.2,2.1-0.2V7.4c-1.3,0-2.6-0.1-3.8,0.3
			c-3,0.9-3,3.8-3,6.3C137,16.7,137.1,19.6,133.7,19.8L133.7,19.8z"/>
		<path class="st0" d="M163.8,19.8v3.6c-1.9,0.1-2.8,0.9-3.1,2.8c-0.4,2.1,0.1,4.3-0.4,6.5c-0.4,1.6-1.5,2.5-3,2.9
			c-1.2,0.4-2.4,0.3-3.6,0.3v-3.5c1.1,0,1.8-0.1,2.1-0.2c0.8-0.3,0.9-1.1,0.9-1.8c0-0.6,0.1-1.8,0.1-3.5c0.1-2.3,0.7-3.8,2.6-5.1
			c-2.1-1.2-2.5-3.1-2.7-5.4c-0.1-1.6-0.1-2.7-0.1-3.1c0-0.8-0.1-1.6-1-1.9c-0.3-0.1-1-0.2-2.1-0.2V7.4c4.9-0.1,6.9,1.5,6.9,6.6
			C160.6,16.7,160.4,19.6,163.8,19.8L163.8,19.8z"/>
	</g>
	<g>
		<path class="st1" d="M143.4,19.8c0.9,0,1.7,0.8,1.7,1.7s-0.8,1.7-1.7,1.7s-1.7-0.8-1.7-1.7S142.5,19.8,143.4,19.8L143.4,19.8z"/>
		<path class="st1" d="M148.8,19.8c0.9,0,1.7,0.8,1.7,1.7s-0.8,1.7-1.7,1.7c-0.9,0-1.7-0.8-1.7-1.7S147.8,19.8,148.8,19.8
			L148.8,19.8z"/>
		<path class="st1" d="M154.2,19.8c0.9,0,1.7,0.8,1.7,1.7s-0.8,1.7-1.7,1.7s-1.7-0.8-1.7-1.7S153.2,19.8,154.2,19.8L154.2,19.8z"/>
	</g>
	<g>
		<path class="st1" d="M39.2,19.8c0.9,0,1.7,0.8,1.7,1.7s-0.8,1.7-1.7,1.7c-0.9,0-1.7-0.8-1.7-1.7S38.3,19.8,39.2,19.8L39.2,19.8z"
			/>
		<path class="st1" d="M46.9,19.8c0.9,0,1.7,0.8,1.7,1.7s-0.8,1.7-1.7,1.7c-0.9,0-1.7-0.8-1.7-1.7S46,19.8,46.9,19.8L46.9,19.8z"/>
	</g>
	<g>
		<g>
			<path class="st0" d="M56.4,15c-0.7-1.8-1.7-3.3-3-4.5c-0.1-0.1-0.3-0.2-0.4-0.4c-1,1.1-2.4,2.1-4,2.8c0.2,0.2,0.4,0.4,0.6,0.6
				c0.8,0.9,1.3,2,1.7,3.2c0.4,1.3,0.6,2.6,0.6,4.1v0.3c0,1.5-0.2,3-0.6,4.2c-0.4,1.3-1,2.4-1.8,3.3c-0.8,0.9-1.7,1.6-2.8,2.1
				s-2.3,0.7-3.6,0.7c-1.3,0-2.5-0.2-3.6-0.7c-1.1-0.5-2-1.2-2.8-2.1c-0.8-0.9-1.4-2-1.9-3.2c-0.5-1.3-0.7-2.7-0.7-4.2v-0.3
				c0-1.5,0.2-2.9,0.6-4.2c0.3-0.9,0.7-1.7,1.2-2.4c-1.8-0.6-3.2-1.5-4.1-2.8c-0.9,1.1-1.6,2.3-2.1,3.7c-0.7,1.8-1.1,3.7-1.1,5.8
				v0.3c0,2,0.3,4,1,5.7c0.7,1.8,1.7,3.3,2.9,4.6c1.2,1.3,2.8,2.3,4.5,3.1c1.8,0.7,3.8,1.1,5.9,1.1c2.2,0,4.1-0.4,5.9-1.1
				c1.8-0.7,3.3-1.8,4.5-3.1c1.3-1.3,2.2-2.8,2.9-4.6s1-3.7,1-5.8v-0.3C57.5,18.7,57.1,16.7,56.4,15z"/>
			<path class="st0" d="M39.5,10.2c1.4,0,2.8-0.2,4.3-0.5c2.2-0.5,4-1.3,5.4-2.2c-0.1,0-0.2-0.1-0.3-0.1c-1.8-0.7-3.7-1.1-5.8-1.1
				c-2.1,0-4.1,0.4-5.8,1.1c-1.1,0.4-2,1-2.9,1.6C35.5,9.8,37.3,10.2,39.5,10.2z"/>
		</g>
	</g>
	<path class="st2" d="M44.1,11.1c-5.7,1.3-10.8,0.2-11.9-2.5c0,0.2,0,0.4,0.1,0.6c0.8,3.5,6.3,5.3,12.3,3.9s10.2-5.4,9.3-8.9
		c0-0.2-0.1-0.4-0.2-0.5C53.9,6.5,49.8,9.7,44.1,11.1z"/>
	<path class="st3" d="M33.5,8.8c-0.6-2.7,3.2-5.8,8.5-7C47.3,0.5,52,1.7,52.7,4.4c0,0.1,0,0.1,0,0.2c0.1-0.5,0.1-0.9,0-1.3
		c-0.6-2.7-5.6-3.9-11.1-2.7S32.3,5,32.9,7.7c0.1,0.4,0.3,0.8,0.6,1.2C33.5,8.9,33.5,8.8,33.5,8.8z"/>
</g>
</svg>
